<svg width="16" height="16" viewBox="0 0 16 16" fill="none" xmlns="http://www.w3.org/2000/svg">
<path fill-rule="evenodd" clip-rule="evenodd" d="M7.16151 2.34454C7.52832 1.6013 8.58816 1.6013 8.95498 2.34454L10.1767 4.82005C10.3224 5.11519 10.6039 5.31976 10.9296 5.36709L13.6615 5.76406C14.4818 5.88324 14.8093 6.89121 14.2157 7.46975L12.2389 9.39666C12.0032 9.6264 11.8957 9.9574 11.9513 10.2818L12.418 13.0026C12.5581 13.8195 11.7007 14.4425 10.9671 14.0568L8.52358 12.7722C8.23226 12.619 7.88422 12.619 7.5929 12.7722L5.14943 14.0568C4.4158 14.4425 3.55837 13.8195 3.69848 13.0026L4.16514 10.2818C4.22078 9.9574 4.11323 9.6264 3.87755 9.39666L1.90074 7.46975C1.30722 6.89121 1.63473 5.88324 2.45495 5.76406L5.18683 5.36709C5.51254 5.31976 5.79411 5.11519 5.93977 4.82005L7.16151 2.34454ZM2.28945 2.28976C2.49773 2.08148 2.83541 2.08148 3.04369 2.28976L4.37703 3.62309C4.58531 3.83137 4.58531 4.16906 4.37703 4.37734C4.16875 4.58562 3.83106 4.58562 3.62278 4.37734L2.28945 3.044C2.08117 2.83572 2.08117 2.49804 2.28945 2.28976ZM13.7104 3.044C13.9186 2.83572 13.9186 2.49804 13.7104 2.28976C13.5021 2.08148 13.1644 2.08148 12.9561 2.28976L11.6228 3.62309C11.4145 3.83137 11.4145 4.16906 11.6228 4.37734C11.8311 4.58562 12.1687 4.58562 12.377 4.37734L13.7104 3.044Z" fill="white"/>
</svg>
